<?xml version="1.0" standalone="no"?><!DOCTYPE svg PUBLIC "-//W3C//DTD SVG 1.1//EN" "http://www.w3.org/Graphics/SVG/1.1/DTD/svg11.dtd"><svg t="1567497199795" class="icon" viewBox="0 0 1024 1024" version="1.1" xmlns="http://www.w3.org/2000/svg" p-id="2061" xmlns:xlink="http://www.w3.org/1999/xlink" width="400" height="400"><defs><style type="text/css"></style></defs><path d="M213.922672 925.274488l135.206378 0c65.918315 0 119.626541-52.147684 127.431298-119.189589L86.521051 806.084898C94.297155 873.126804 148.066779 925.274488 213.922672 925.274488L213.922672 925.274488zM349.129051 511.441275 213.922672 511.441275c-65.824171 0-119.563096 52.116985-127.369899 119.126144l390.007575 0C468.721823 563.55826 415.01462 511.441275 349.129051 511.441275L349.129051 511.441275zM63.383074 785.665847l431.600879 0L494.983953 661.294235 63.383074 661.294235 63.383074 785.665847 63.383074 785.665847zM902.197398 273.284153l-141.420917 0 17.799388-98.267071 119.343085 0c21.297049 0 38.564317-18.142196 38.564317-40.561811 0-22.358217-17.298991-40.531112-38.564317-40.531112L749.03609 93.924159c-0.531096 0-1.031493 0.313132-1.530866 0.313132-15.238053 0-29.631878 9.429767-35.720549 25.105794l-25.823132 142.232398c-1.499144 3.840468-1.780553 7.77508-2.12336 11.647271l-173.552731 0c-31.162744 0-56.517201 26.603915-56.517201 59.421344s25.292036 59.422368 56.517201 59.422368l4.091178 0 52.427046 532.772093 278.876522 0 52.427046-532.772093 4.059456 0c31.255865 0 56.517201-26.604938 56.517201-59.422368S933.486008 273.284153 902.197398 273.284153L902.197398 273.284153zM902.197398 273.284153" p-id="2062" fill="#cdcdcd"></path></svg>