<?xml version="1.0" standalone="no"?><!DOCTYPE svg PUBLIC "-//W3C//DTD SVG 1.1//EN" "http://www.w3.org/Graphics/SVG/1.1/DTD/svg11.dtd"><svg t="1567416969556" class="icon" viewBox="0 0 1025 1024" version="1.1" xmlns="http://www.w3.org/2000/svg" p-id="3108" xmlns:xlink="http://www.w3.org/1999/xlink" width="400.390625" height="400"><defs><style type="text/css"></style></defs><path d="M861.021021 894.334334c0 35.875876-50.738739 81.489489-86.614615 81.48949h-568.888888c-35.363363 0-64.064064-45.613614-64.064065-81.48949V230.630631c0-35.875876 35.875876-78.926927 80.976977-78.926927l287.51952-3.075075v-39.463464H225.505506c-70.726727 0-128.128128 57.913914-128.128129 129.665666v655.503503c0 71.751752 57.401401 129.665666 128.128129 129.665666h548.9009c70.726727 0 128.128128-57.913914 128.128129-129.665666v-496.624624h-41.513514v496.624624z" fill="#cdcdcd" p-id="3109"></path><path d="M666.778779 809.76977h-330.058058c-12.3003 0-22.550551 10.25025-22.550551 22.55055 0 12.3003 10.25025 22.550551 22.550551 22.550551h330.058058c12.3003 0 22.550551-10.25025 22.55055-22.550551 0-12.3003-10.25025-22.550551-22.55055-22.55055zM666.778779 648.840841h-330.058058c-12.3003 0-22.550551 10.25025-22.550551 22.55055 0 12.3003 10.25025 22.550551 22.550551 22.550551h330.058058c12.3003 0 22.550551-10.25025 22.55055-22.550551 0-12.812813-10.25025-22.550551-22.55055-22.55055zM895.359359 35.875876c-20.500501-20.500501-46.638639-30.750751-73.289289-30.750751-26.650651 0-53.301301 10.25025-73.289289 30.750751l-321.857858 322.37037c-40.488488 41.001001-40.488488 107.627628 0 148.628629 20.500501 20.500501 46.638639 30.750751 73.289289 30.750751 26.650651 0 53.301301-10.25025 73.28929-30.750751l321.857857-322.37037c40.488488-41.001001 40.488488-107.627628 0-148.628629z m-352.608608 446.910911c-12.3003 12.3003-28.700701 19.475475-45.613614 19.475475s-33.313313-6.662663-45.613613-18.962963c-25.113113-25.625626-25.113113-66.626627 0-92.252252l60.476476-60.988989 90.202202 93.277277-59.451451 59.451452z m332.62062-327.495496l-244.980981 241.905906-91.227227-96.352352 237.293293-238.830831c10.762763-10.762763 35.363363-22.038038 52.276277-19.987988 15.375375 1.537538 35.363363 11.787788 46.638638 22.550551 22.550551 22.550551 22.550551 68.164164 0 90.714714z" fill="#cdcdcd" p-id="3110"></path></svg>