<?xml version="1.0" standalone="no"?><!DOCTYPE svg PUBLIC "-//W3C//DTD SVG 1.1//EN" "http://www.w3.org/Graphics/SVG/1.1/DTD/svg11.dtd"><svg t="1567496121793" class="icon" viewBox="0 0 1024 1024" version="1.1" xmlns="http://www.w3.org/2000/svg" p-id="4746" xmlns:xlink="http://www.w3.org/1999/xlink" width="400" height="400"><defs><style type="text/css"></style></defs><path d="M835.969 63.659H185.154c-35.422 0-64.253 28.817-64.253 64.253v767.966c0 35.437 28.831 64.253 64.253 64.253H835.97c35.422 0 64.252-28.817 64.252-64.253V127.913c0-35.437-28.83-64.254-64.252-64.254z m-650.815 56.72H835.97c4.153 0 7.532 3.379 7.532 7.533v64.793h-665.88v-64.793c0-4.154 3.378-7.533 7.533-7.533zM835.97 903.412H185.154c-4.154 0-7.532-3.379-7.532-7.533V249.427h665.88v646.452c0 4.154-3.38 7.533-7.533 7.533z" p-id="4747"></path><path d="M482.188 318.775h-198.91c-31.268 0-56.72 25.439-56.72 56.72v84.749c0 31.281 25.452 56.72 56.72 56.72h198.909c31.268 0 56.72-25.439 56.72-56.72v-84.748c0-31.282-25.452-56.72-56.72-56.72z m-198.91 141.469v-84.748h198.909l0.027 84.748H283.278z m475.919-141.469h-137.73c-15.675 0-28.36 12.699-28.36 28.361 0 15.661 12.685 28.36 28.36 28.36h137.73c15.675 0 28.36-12.698 28.36-28.36 0-15.662-12.685-28.36-28.36-28.36z m0 141.469H687.63c-15.676 0-28.36 12.698-28.36 28.36 0 15.662 12.685 28.36 28.36 28.36h71.566c15.675 0 28.36-12.698 28.36-28.36 0-15.662-12.685-28.36-28.36-28.36z m-277.01 166.698H283.279c-31.268 0-56.72 25.439-56.72 56.72v84.749c0 31.281 25.452 56.72 56.72 56.72h198.909c31.268 0 56.72-25.439 56.72-56.72v-84.748c0-31.282-25.452-56.72-56.72-56.72zM283.279 768.411v-84.748h198.909l0.027 84.748H283.278z m475.919-141.469h-137.73c-15.675 0-28.36 12.699-28.36 28.36s12.685 28.36 28.36 28.36h137.73c15.675 0 28.36-12.699 28.36-28.36s-12.685-28.36-28.36-28.36z m0 141.469H687.63c-15.676 0-28.36 12.698-28.36 28.36 0 15.66 12.685 28.36 28.36 28.36h71.566c15.675 0 28.36-12.698 28.36-28.36 0-15.662-12.685-28.36-28.36-28.36z" p-id="4748"></path></svg>