<?xml version="1.0" standalone="no"?><!DOCTYPE svg PUBLIC "-//W3C//DTD SVG 1.1//EN" "http://www.w3.org/Graphics/SVG/1.1/DTD/svg11.dtd"><svg t="1567417559276" class="icon" viewBox="0 0 1024 1024" version="1.1" xmlns="http://www.w3.org/2000/svg" p-id="4576" xmlns:xlink="http://www.w3.org/1999/xlink" width="400" height="400"><defs><style type="text/css"></style></defs><path d="M265.309091 0c121.018182 0 218.763636 116.363636 218.763636 256 0 111.709091-60.509091 209.454545-151.272727 244.363636l27.927273 423.563637c0 55.854545-44.218182 97.745455-97.745455 97.745454-55.854545 2.327273-100.072727-39.563636-100.072727-93.090909l27.927273-428.218182C104.727273 463.127273 46.545455 365.381818 46.545455 256 46.545455 116.363636 144.290909 0 265.309091 0z m698.181818 51.2c16.290909 0 30.254545 13.963636 30.254546 30.254545v235.054546c0 83.781818-55.854545 160.581818-134.981819 188.509091v2.327273l27.927273 418.90909c0 53.527273-44.218182 97.745455-95.418182 97.745455-53.527273 0-95.418182-41.890909-97.745454-93.090909L721.454545 507.345455c-81.454545-27.927273-134.981818-104.727273-134.981818-188.509091V81.454545c0-16.290909 13.963636-30.254545 30.254546-30.254545 16.290909 0 30.254545 13.963636 30.254545 30.254545v235.054546c0 62.836364 41.890909 118.690909 102.4 134.981818l34.909091 9.309091h13.963636l34.909091-9.309091c60.509091-18.618182 102.4-74.472727 102.4-134.981818V81.454545c-2.327273-16.290909 11.636364-30.254545 27.927273-30.254545z m-225.745454 281.6c-13.963636 0-25.6-13.963636-25.6-30.254545V55.854545c0-16.290909 11.636364-30.254545 25.6-30.254545 13.963636 0 25.6 13.963636 25.6 30.254545V302.545455c0 16.290909-11.636364 30.254545-25.6 30.254545z m102.4 0c-13.963636 0-25.6-13.963636-25.6-30.254545V55.854545c0-16.290909 11.636364-30.254545 25.6-30.254545 13.963636 0 25.6 13.963636 25.6 30.254545V302.545455c0 16.290909-11.636364 30.254545-25.6 30.254545z" p-id="4577" fill="#cdcdcd"></path></svg>