<?xml version="1.0" standalone="no"?><!DOCTYPE svg PUBLIC "-//W3C//DTD SVG 1.1//EN" "http://www.w3.org/Graphics/SVG/1.1/DTD/svg11.dtd"><svg t="1575602005109" class="icon" viewBox="0 0 1024 1024" version="1.1" xmlns="http://www.w3.org/2000/svg" p-id="10214" xmlns:xlink="http://www.w3.org/1999/xlink" width="400" height="400"><defs><style type="text/css"></style></defs><path d="M512 0C229.262222 0 0 229.233778 0 512c0 282.737778 229.233778 512 512 512 282.794667 0 512-229.262222 512-512 0-282.766222-229.205333-512-512-512z m0 935.708444C278.016 935.708444 88.291556 746.012444 88.291556 512 88.291556 277.959111 278.016 88.263111 512 88.263111c234.040889 0 423.736889 189.696 423.736889 423.736889 0 234.012444-189.667556 423.708444-423.736889 423.708444z" fill="#dbdbdb" p-id="10215"></path><path d="M209.550222 414.151111c-32.341333 0-58.311111 10.581333-77.994666 31.744-19.655111 21.162667-29.496889 48.583111-29.496889 82.289778 0 31.857778 9.614222 57.884444 28.899555 78.108444 19.256889 20.252444 44.316444 30.350222 75.150222 30.350223 31.573333 0 57.116444-10.439111 76.572445-31.317334 19.512889-20.878222 29.240889-48.099556 29.240889-81.607111 0-32.113778-9.358222-58.424889-28.131556-78.876444-18.744889-20.48-43.52-30.691556-74.24-30.691556z m39.310222 163.669333c-10.012444 12.714667-23.978667 19.086222-41.955555 19.086223-17.578667 0-31.402667-6.627556-41.528889-19.911111-10.097778-13.312-15.132444-30.378667-15.132444-51.342223 0-21.191111 5.176889-38.485333 15.473777-51.797333 10.325333-13.340444 24.490667-19.996444 42.439111-19.996444 17.664 0 31.402667 6.513778 41.102223 19.512888s14.592 30.72 14.592 53.134223c0 21.504-4.977778 38.570667-14.990223 51.313777z m173.482667-160.056888h-74.040889v215.125333h45.824v-75.008h23.608889c24.263111 0.568889 44.458667-5.802667 60.643556-19.086222 16.128-13.283556 24.234667-30.947556 24.234666-52.992 0-45.368889-26.766222-68.039111-80.270222-68.039111z m-8.334222 104.988444h-19.854222v-69.432889h20.280889c26.680889 0 39.992889 11.434667 39.992888 34.304 0 23.409778-13.482667 35.128889-40.419555 35.128889z m195.271111-104.988444h-74.040889v215.125333h45.824v-75.008h23.608889c24.263111 0.568889 44.458667-5.802667 60.643556-19.086222 16.128-13.283556 24.234667-30.947556 24.234666-52.992 0-45.368889-26.766222-68.039111-80.270222-68.039111z m-8.334222 104.988444h-19.854222v-69.432889h20.280888c26.680889 0 39.992889 11.434667 39.992889 34.304 0 23.409778-13.482667 35.128889-40.419555 35.128889z m289.507555-77.909333c-18.716444-20.451556-43.491556-30.691556-74.211555-30.691556-32.341333 0-58.311111 10.581333-77.994667 31.744-19.655111 21.162667-29.496889 48.583111-29.496889 82.289778 0 31.857778 9.614222 57.884444 28.899556 78.108444 19.285333 20.252444 44.316444 30.350222 75.150222 30.350223 31.573333 0 57.088-10.439111 76.572444-31.317334 19.512889-20.878222 29.240889-48.099556 29.240889-81.607111-0.028444-32.113778-9.386667-58.424889-28.16-78.876444z m-34.929777 132.977777c-10.012444 12.714667-23.978667 19.086222-41.955556 19.086223-17.578667 0-31.431111-6.627556-41.528889-19.911111-10.097778-13.312-15.132444-30.378667-15.132444-51.342223 0-21.191111 5.176889-38.485333 15.473777-51.797333 10.325333-13.340444 24.490667-19.996444 42.439112-19.996444 17.664 0 31.402667 6.513778 41.102222 19.512888s14.592 30.72 14.592 53.134223c0 21.504-4.977778 38.570667-14.990222 51.313777z" fill="#dbdbdb" p-id="10216"></path></svg>