<?xml version="1.0" standalone="no"?><!DOCTYPE svg PUBLIC "-//W3C//DTD SVG 1.1//EN" "http://www.w3.org/Graphics/SVG/1.1/DTD/svg11.dtd"><svg t="1575535053167" class="icon" viewBox="0 0 1024 1024" version="1.1" xmlns="http://www.w3.org/2000/svg" p-id="2625" xmlns:xlink="http://www.w3.org/1999/xlink" width="400" height="400"><defs><style type="text/css"></style></defs><path d="M747.140741 252.207407h3.792592c147.911111 15.17037 257.896296 142.222222 257.896297 295.822223s-115.674074 280.651852-263.585186 295.822222H305.303704C155.496296 838.162963 37.925926 705.422222 37.925926 549.925926c0-157.392593 119.466667-290.133333 274.962963-295.822222h434.251852z m-432.355556 75.851852C202.903704 333.748148 113.777778 432.355556 113.777778 549.925926c0 115.674074 87.22963 214.281481 193.422222 219.97037h430.459259C847.644444 758.518519 931.081481 663.703704 931.081481 549.925926c0-115.674074-79.644444-208.592593-187.733333-219.97037l-428.562963-1.896297z" p-id="2626"></path><path d="M548.02963 219.97037v51.2l-66.370371 3.792593V189.62963c0-66.37037 66.37037-66.37037 77.748148-66.370371 115.674074 0 115.674074-11.377778 115.674074-41.718518V18.962963H739.555556v91.022222c-5.688889 70.162963-66.37037 64.474074-132.740741 72.059259-64.474074-1.896296-58.785185 18.962963-58.785185 37.925926z" p-id="2627"></path><path d="M529.066667 219.97037v51.2l-66.370371 3.792593V189.62963c0-66.37037 66.37037-66.37037 77.748148-66.370371 115.674074 0 115.674074-11.377778 115.674075-41.718518V18.962963H720.592593v91.022222c-5.688889 70.162963-66.37037 64.474074-132.740741 72.059259-64.474074-1.896296-58.785185 18.962963-58.785185 37.925926z" p-id="2628"></path><path d="M620.088889 542.340741a36.02963 36.02963 0 1 0 72.059259 0 36.02963 36.02963 0 1 0-72.059259 0Z" p-id="2629"></path><path d="M343.22963 513.896296v-85.333333c0-5.688889-3.792593-9.481481-9.481482-9.481482h-34.133333c-5.688889 0-9.481481 3.792593-9.481482 9.481482v85.333333H204.8c-5.688889 0-9.481481 3.792593-9.481481 9.481482v34.133333c0 5.688889 3.792593 9.481481 9.481481 9.481482h85.333333v98.607407c0 5.688889 3.792593 9.481481 9.481482 9.481481h34.133333c5.688889 0 9.481481-3.792593 9.481482-9.481481V568.888889h91.022222c5.688889 0 9.481481-3.792593 9.481481-9.481482v-34.133333c0-5.688889-3.792593-9.481481-9.481481-9.481481h-91.022222z" p-id="2630"></path><path d="M703.525926 627.674074a36.02963 36.02963 0 1 0 72.059259 0 36.02963 36.02963 0 1 0-72.059259 0Z" p-id="2631"></path><path d="M788.859259 542.340741a36.02963 36.02963 0 1 0 72.05926 0 36.02963 36.02963 0 1 0-72.05926 0Z" p-id="2632"></path><path d="M703.525926 457.007407a36.02963 36.02963 0 1 0 72.059259 0 36.02963 36.02963 0 1 0-72.059259 0Z" p-id="2633"></path></svg>