<?xml version="1.0" standalone="no"?><!DOCTYPE svg PUBLIC "-//W3C//DTD SVG 1.1//EN" "http://www.w3.org/Graphics/SVG/1.1/DTD/svg11.dtd"><svg t="1571382762914" class="icon" viewBox="0 0 1408 1024" version="1.1" xmlns="http://www.w3.org/2000/svg" p-id="2906" xmlns:xlink="http://www.w3.org/1999/xlink" width="550" height="400"><defs><style type="text/css"></style></defs><path d="M1359.255501 907.546447h-1315.391903c-24.25399 0-43.863598 19.26558-43.863598 43.51957 0 24.25399 19.609609 43.51957 43.863598 43.51957h1315.391903c24.25399 0 43.863598-19.26558 43.863599-43.51957 0-24.25399-19.609609-43.51957-43.863599-43.51957z m45.239711-838.396775c-0.516042-3.268268-2.064169-6.536536-3.268268-9.63279-1.204099-3.096254-3.78431-5.676466-5.676465-8.256677-1.204099-1.720141-2.064169-3.78431-3.612297-5.504452-0.172014-0.172014-0.688056-0.344028-0.86007-0.516042-2.236183-2.408198-5.332437-3.956325-8.084663-5.84848-2.064169-1.376113-3.78431-3.096254-5.84848-3.956324-2.064169-0.860071-4.300353-1.032085-6.536536-1.548127-3.440282-0.860071-6.70855-2.752226-10.148833-2.752226-0.344028 0-0.688056-0.860071-0.86007-0.860071H1096.245926c-24.25399 0-43.863598 19.26558-43.863598 43.51957 0 24.25399 19.609609 43.51957 43.863598 43.51957h150.340333L834.612464 495.916681 469.598522 131.590795c-17.201411-17.201411-44.895683-16.857383-61.92508 0.344028l-394.60037 394.772383c-17.201411 17.201411-17.201411 44.895683 0 62.097094s44.895683 17.201411 61.92508 0L438.635982 224.994457l363.63783 363.637829c8.600706 8.600706 19.781623 12.901058 30.962539 12.901059 10.664875 0 24.081975-3.78431 32.510667-11.524946L1321.240383 175.110365v163.413405c0 24.25399 19.26558 43.863598 43.51957 43.863598 24.25399 0 43.51957-19.609609 43.51957-43.863598v-263.18159c0-2.064169-3.440282-3.956325-3.784311-6.192508z m0 0" p-id="2907" fill="#cdcdcd"></path></svg>