<?xml version="1.0" standalone="no"?><!DOCTYPE svg PUBLIC "-//W3C//DTD SVG 1.1//EN" "http://www.w3.org/Graphics/SVG/1.1/DTD/svg11.dtd"><svg t="1567502399598" class="icon" viewBox="0 0 1239 1024" version="1.1" xmlns="http://www.w3.org/2000/svg" p-id="11686" xmlns:xlink="http://www.w3.org/1999/xlink" width="483.984375" height="400"><defs><style type="text/css"></style></defs><path d="M144.384 0h950.918737l132.581052 278.096842H11.802947L144.437895 0z m-21.557895 417.145263c-48.505263 0-87.740632-35.193263-87.740631-78.632421 0-7.814737 1.293474-15.36 3.664842-22.474105h168.043789c2.371368 7.114105 3.718737 14.659368 3.718737 22.474105 0 43.439158-39.289263 78.686316-87.740631 78.686316z m111.023158-78.632421c0-7.814737 1.347368-15.36 3.718737-22.474105h168.043789c2.371368 7.114105 3.664842 14.659368 3.664843 22.474105 0 43.439158-39.235368 78.686316-87.686737 78.686316S233.903158 381.952 233.903158 338.458947z m198.871579 0c0-7.814737 1.239579-15.36 3.664842-22.474105h168.04379c2.371368 7.114105 3.664842 14.659368 3.664842 22.474105 0 43.439158-39.289263 78.686316-87.686737 78.686316-48.505263 0-87.740632-35.247158-87.740632-78.686316z m210.458947 0c0-7.814737 1.293474-15.36 3.664843-22.474105h168.043789c2.371368 7.114105 3.718737 14.659368 3.718737 22.474105 0 43.439158-39.289263 78.686316-87.740632 78.686316-48.397474 0-87.686737-35.247158-87.686737-78.686316z m198.817685 0c0-7.814737 1.293474-15.36 3.664842-22.474105h168.043789c2.371368 7.114105 3.664842 14.659368 3.664842 22.474105 0 43.439158-39.235368 78.686316-87.686736 78.686316s-87.686737-35.247158-87.686737-78.686316z m286.450526 78.686316c-48.397474 0-87.686737-35.247158-87.686737-78.686316 0-7.814737 1.347368-15.36 3.664842-22.474105h168.097684c2.371368 7.114105 3.664842 14.659368 3.664843 22.474105 0 43.439158-39.289263 78.686316-87.740632 78.686316zM46.780632 922.839579H116.951579V493.029053c0-7.006316 5.227789-12.611368 11.695158-12.611369h58.475789c6.467368 0 11.695158 5.658947 11.695158 12.611369v429.810526H502.837895V493.029053c0-7.006316 5.227789-12.611368 11.695158-12.611369h35.085473c6.467368 0 11.695158 5.658947 11.695158 12.611369v429.810526h502.837895V493.029053c0-7.006316 5.227789-12.611368 11.695158-12.611369h46.780631c6.467368 0 11.695158 5.658947 11.695158 12.611369v429.810526h58.47579c25.869474 0 46.780632 22.635789 46.780631 50.607158 0 27.917474-20.965053 50.553263-46.780631 50.553263H46.780632C20.911158 1024 0 1001.364211 0 973.446737s20.911158-50.607158 46.780632-50.607158z m362.496-333.069474v173.16379a44.517053 44.517053 0 0 1 23.390315 39.882105c0 24.360421-18.324211 44.193684-40.906105 44.193684-22.635789 0-40.96-19.833263-40.96-44.193684 0-17.677474 9.647158-32.768 23.390316-39.882105v-173.16379a44.517053 44.517053 0 0 1-23.390316-39.882105c0-24.414316 18.324211-44.193684 40.96-44.193684s40.96 19.779368 40.96 44.193684a44.517053 44.517053 0 0 1-23.44421 39.882105z m213.099789 72.218948l165.456842-178.768842a11.102316 11.102316 0 0 1 16.49179 0 13.365895 13.365895 0 0 1 0 17.893052l-165.456842 178.714948a11.048421 11.048421 0 0 1-16.49179 0 13.365895 13.365895 0 0 1 0-17.893053z m16.545684 148.426105l295.882106-323.799579a11.102316 11.102316 0 0 1 16.545684-0.10779c4.581053 4.904421 4.634947 12.934737 0.107789 17.893053l-295.882105 323.745684a11.102316 11.102316 0 0 1-16.545684 0.10779 13.419789 13.419789 0 0 1-0.10779-17.839158z m162.223158-3.395369l171.762526-187.984842a9.862737 9.862737 0 0 1 14.551579-0.215579 11.317895 11.317895 0 0 1 0.215579 15.36l-171.762526 187.984843a9.862737 9.862737 0 0 1-14.551579 0.269473 11.317895 11.317895 0 0 1-0.215579-15.413895z" fill="#cdcdcd" p-id="11687"></path></svg>