<?xml version="1.0" standalone="no"?><!DOCTYPE svg PUBLIC "-//W3C//DTD SVG 1.1//EN" "http://www.w3.org/Graphics/SVG/1.1/DTD/svg11.dtd"><svg t="1571366989621" class="icon" viewBox="0 0 1210 1024" version="1.1" xmlns="http://www.w3.org/2000/svg" p-id="6665" xmlns:xlink="http://www.w3.org/1999/xlink" width="472.65625" height="400"><defs><style type="text/css"></style></defs><path d="M370.269091 522.053818c-83.176727-42.821818-138.752-137.262545-138.752-248.459636C231.517091 122.507636 338.478545 0 470.434909 0s238.964364 122.507636 238.964364 273.594182c0 110.871273-55.389091 205.172364-138.24 248.133818 204.8 51.060364 359.936 254.603636 370.082909 501.573818L0 1024c13.032727-243.758545 167.284364-449.954909 370.269091-501.946182z" p-id="6666" fill="#bfbfbf"></path><path d="M674.676364 32.395636c56.32 62.510545 91.322182 150.062545 91.322181 246.970182 0 89.553455-29.835636 171.054545-78.801454 232.261818 152.389818 75.077818 267.636364 230.260364 305.198545 419.281455L1210.181818 930.722909c-9.216-224.628364-150.341818-409.739636-336.616727-456.145454 75.310545-39.098182 125.719273-124.881455 125.719273-225.745455C999.330909 111.429818 902.050909 0 781.963636 0c-39.982545 0-77.451636 12.381091-109.661091 33.978182l2.373819-1.582546z" p-id="6667" fill="#bfbfbf"></path></svg>